<mxfile host="app.diagrams.net" modified="2023-05-16T17:52:57.026Z" agent="Mozilla/5.0 (Windows NT 10.0; Win64; x64) AppleWebKit/537.36 (KHTML, like Gecko) Chrome/113.0.0.0 Safari/537.36" etag="nZIn5U-SoVZebbX6UtN9" version="21.2.9" type="device" pages="4">
  <diagram name="FS" id="qoMtI274p6w0Hs21MJCM">
    <mxGraphModel dx="1434" dy="796" grid="0" gridSize="10" guides="1" tooltips="1" connect="1" arrows="1" fold="1" page="1" pageScale="1" pageWidth="1169" pageHeight="827" math="0" shadow="0">
      <root>
        <mxCell id="0" />
        <mxCell id="1" parent="0" />
        <mxCell id="VXKeamdtSLFpJJ3pvDuh-289" value="DIO3" style="text;html=1;align=center;verticalAlign=middle;resizable=0;points=[];autosize=1;strokeColor=none;fillColor=none;spacing=0;" vertex="1" parent="1">
          <mxGeometry x="675" y="169.65" width="50" height="20" as="geometry" />
        </mxCell>
        <mxCell id="VXKeamdtSLFpJJ3pvDuh-321" value="DIO0" style="text;html=1;align=center;verticalAlign=middle;resizable=0;points=[];autosize=1;strokeColor=none;fillColor=none;spacing=0;strokeWidth=1;" vertex="1" parent="1">
          <mxGeometry x="675" y="108.84" width="50" height="20" as="geometry" />
        </mxCell>
        <mxCell id="VXKeamdtSLFpJJ3pvDuh-322" value="DIO1" style="text;html=1;align=center;verticalAlign=middle;resizable=0;points=[];autosize=1;strokeColor=none;fillColor=none;spacing=0;" vertex="1" parent="1">
          <mxGeometry x="675" y="128.84" width="50" height="20" as="geometry" />
        </mxCell>
        <mxCell id="VXKeamdtSLFpJJ3pvDuh-323" value="DIO2" style="text;html=1;align=center;verticalAlign=middle;resizable=0;points=[];autosize=1;strokeColor=none;fillColor=none;spacing=0;" vertex="1" parent="1">
          <mxGeometry x="675" y="148.34" width="50" height="20" as="geometry" />
        </mxCell>
        <mxCell id="VXKeamdtSLFpJJ3pvDuh-1" value="" style="rounded=0;whiteSpace=wrap;html=1;fillColor=none;" vertex="1" parent="1">
          <mxGeometry x="570" y="256.19" width="150" height="279.81" as="geometry" />
        </mxCell>
        <mxCell id="VXKeamdtSLFpJJ3pvDuh-2" value="" style="endArrow=none;html=1;rounded=0;exitX=0.273;exitY=0.999;exitDx=0;exitDy=0;entryX=0.272;entryY=-0.001;entryDx=0;entryDy=0;exitPerimeter=0;entryPerimeter=0;" edge="1" parent="1" source="VXKeamdtSLFpJJ3pvDuh-1" target="VXKeamdtSLFpJJ3pvDuh-1">
          <mxGeometry width="50" height="50" relative="1" as="geometry">
            <mxPoint x="590" y="376.19" as="sourcePoint" />
            <mxPoint x="700" y="316.19" as="targetPoint" />
          </mxGeometry>
        </mxCell>
        <mxCell id="VXKeamdtSLFpJJ3pvDuh-3" value="" style="endArrow=none;html=1;rounded=0;exitX=0.727;exitY=0.999;exitDx=0;exitDy=0;entryX=0.726;entryY=0;entryDx=0;entryDy=0;exitPerimeter=0;entryPerimeter=0;" edge="1" parent="1" source="VXKeamdtSLFpJJ3pvDuh-1" target="VXKeamdtSLFpJJ3pvDuh-1">
          <mxGeometry width="50" height="50" relative="1" as="geometry">
            <mxPoint x="640" y="376.19" as="sourcePoint" />
            <mxPoint x="740" y="356.19" as="targetPoint" />
          </mxGeometry>
        </mxCell>
        <mxCell id="VXKeamdtSLFpJJ3pvDuh-4" value="RAM" style="text;html=1;align=center;verticalAlign=middle;resizable=0;points=[];autosize=1;strokeColor=none;fillColor=none;" vertex="1" parent="1">
          <mxGeometry x="619" y="292.69" width="50" height="30" as="geometry" />
        </mxCell>
        <mxCell id="VXKeamdtSLFpJJ3pvDuh-13" value="AB1" style="text;html=1;align=center;verticalAlign=middle;resizable=0;points=[];autosize=1;strokeColor=none;fillColor=none;spacing=0;" vertex="1" parent="1">
          <mxGeometry x="570" y="417" width="40" height="20" as="geometry" />
        </mxCell>
        <mxCell id="VXKeamdtSLFpJJ3pvDuh-14" value="Z" style="text;html=1;align=center;verticalAlign=middle;resizable=0;points=[];autosize=1;strokeColor=none;fillColor=none;spacing=0;" vertex="1" parent="1">
          <mxGeometry x="684" y="257.69" width="30" height="20" as="geometry" />
        </mxCell>
        <mxCell id="VXKeamdtSLFpJJ3pvDuh-15" value="&amp;lt;-&amp;gt;" style="text;html=1;align=center;verticalAlign=middle;resizable=0;points=[];autosize=1;strokeColor=none;fillColor=none;spacing=0;" vertex="1" parent="1">
          <mxGeometry x="679" y="277.69" width="40" height="20" as="geometry" />
        </mxCell>
        <mxCell id="VXKeamdtSLFpJJ3pvDuh-23" value="" style="endArrow=none;html=1;rounded=0;exitX=0.001;exitY=0.842;exitDx=0;exitDy=0;exitPerimeter=0;" edge="1" parent="1">
          <mxGeometry width="50" height="50" relative="1" as="geometry">
            <mxPoint x="570" y="338.69" as="sourcePoint" />
            <mxPoint x="611" y="339" as="targetPoint" />
          </mxGeometry>
        </mxCell>
        <mxCell id="VXKeamdtSLFpJJ3pvDuh-24" value="AB2" style="text;html=1;align=center;verticalAlign=middle;resizable=0;points=[];autosize=1;strokeColor=none;fillColor=none;spacing=0;" vertex="1" parent="1">
          <mxGeometry x="570" y="437" width="40" height="20" as="geometry" />
        </mxCell>
        <mxCell id="VXKeamdtSLFpJJ3pvDuh-25" value="AB3" style="text;html=1;align=center;verticalAlign=middle;resizable=0;points=[];autosize=1;strokeColor=none;fillColor=none;spacing=0;" vertex="1" parent="1">
          <mxGeometry x="570" y="456.99999999999994" width="40" height="20" as="geometry" />
        </mxCell>
        <mxCell id="VXKeamdtSLFpJJ3pvDuh-26" value="EB" style="text;html=1;align=center;verticalAlign=middle;resizable=0;points=[];autosize=1;strokeColor=none;fillColor=none;spacing=0;" vertex="1" parent="1">
          <mxGeometry x="570" y="476.99999999999994" width="40" height="20" as="geometry" />
        </mxCell>
        <mxCell id="VXKeamdtSLFpJJ3pvDuh-27" value="RDB" style="text;html=1;align=center;verticalAlign=middle;resizable=0;points=[];autosize=1;strokeColor=none;fillColor=none;spacing=0;" vertex="1" parent="1">
          <mxGeometry x="570" y="496.99999999999994" width="40" height="20" as="geometry" />
        </mxCell>
        <mxCell id="VXKeamdtSLFpJJ3pvDuh-28" value="" style="endArrow=none;html=1;rounded=0;entryX=0;entryY=0.125;entryDx=0;entryDy=0;entryPerimeter=0;exitX=0.979;exitY=0.534;exitDx=0;exitDy=0;exitPerimeter=0;edgeStyle=orthogonalEdgeStyle;" edge="1" parent="1" source="VXKeamdtSLFpJJ3pvDuh-130">
          <mxGeometry x="-1" y="15" width="50" height="50" relative="1" as="geometry">
            <mxPoint x="530" y="286" as="sourcePoint" />
            <mxPoint x="570" y="287.55" as="targetPoint" />
            <mxPoint x="-10" y="3" as="offset" />
            <Array as="points">
              <mxPoint x="530" y="212" />
              <mxPoint x="530" y="288" />
            </Array>
          </mxGeometry>
        </mxCell>
        <mxCell id="VXKeamdtSLFpJJ3pvDuh-31" value="" style="endArrow=none;html=1;rounded=0;entryX=0;entryY=0.125;entryDx=0;entryDy=0;entryPerimeter=0;exitX=0.979;exitY=0.548;exitDx=0;exitDy=0;exitPerimeter=0;edgeStyle=orthogonalEdgeStyle;" edge="1" parent="1" source="VXKeamdtSLFpJJ3pvDuh-131">
          <mxGeometry x="-1" y="15" width="50" height="50" relative="1" as="geometry">
            <mxPoint x="530" y="307.02" as="sourcePoint" />
            <mxPoint x="570" y="307.02" as="targetPoint" />
            <mxPoint x="-10" y="3" as="offset" />
            <Array as="points">
              <mxPoint x="520" y="233" />
              <mxPoint x="520" y="307" />
            </Array>
          </mxGeometry>
        </mxCell>
        <mxCell id="VXKeamdtSLFpJJ3pvDuh-33" value="" style="endArrow=none;html=1;rounded=0;entryX=0;entryY=0.125;entryDx=0;entryDy=0;entryPerimeter=0;exitX=1.007;exitY=0.525;exitDx=0;exitDy=0;exitPerimeter=0;edgeStyle=orthogonalEdgeStyle;" edge="1" parent="1" source="VXKeamdtSLFpJJ3pvDuh-132">
          <mxGeometry x="-1" y="15" width="50" height="50" relative="1" as="geometry">
            <mxPoint x="530" y="328.52" as="sourcePoint" />
            <mxPoint x="570" y="328.52" as="targetPoint" />
            <mxPoint x="-10" y="3" as="offset" />
            <Array as="points">
              <mxPoint x="510" y="253" />
              <mxPoint x="510" y="328" />
            </Array>
          </mxGeometry>
        </mxCell>
        <mxCell id="VXKeamdtSLFpJJ3pvDuh-35" value="RAM" style="text;html=1;align=center;verticalAlign=middle;resizable=0;points=[];autosize=1;strokeColor=none;fillColor=none;" vertex="1" parent="1">
          <mxGeometry x="619" y="226.19" width="50" height="30" as="geometry" />
        </mxCell>
        <mxCell id="VXKeamdtSLFpJJ3pvDuh-36" value="" style="endArrow=none;html=1;rounded=0;exitX=0.001;exitY=0.842;exitDx=0;exitDy=0;exitPerimeter=0;" edge="1" parent="1">
          <mxGeometry width="50" height="50" relative="1" as="geometry">
            <mxPoint x="570" y="476.8099999999999" as="sourcePoint" />
            <mxPoint x="611" y="477" as="targetPoint" />
          </mxGeometry>
        </mxCell>
        <mxCell id="VXKeamdtSLFpJJ3pvDuh-37" value="WRB" style="text;html=1;align=center;verticalAlign=middle;resizable=0;points=[];autosize=1;strokeColor=none;fillColor=none;spacing=0;" vertex="1" parent="1">
          <mxGeometry x="565" y="518" width="50" height="20" as="geometry" />
        </mxCell>
        <mxCell id="VXKeamdtSLFpJJ3pvDuh-44" value="" style="endArrow=none;html=1;rounded=0;exitX=0;exitY=0.507;exitDx=0;exitDy=0;exitPerimeter=0;" edge="1" parent="1" source="VXKeamdtSLFpJJ3pvDuh-1">
          <mxGeometry width="50" height="50" relative="1" as="geometry">
            <mxPoint x="570" y="397.19" as="sourcePoint" />
            <mxPoint x="611" y="398" as="targetPoint" />
          </mxGeometry>
        </mxCell>
        <mxCell id="VXKeamdtSLFpJJ3pvDuh-49" value="DIOA3" style="text;html=1;align=center;verticalAlign=middle;resizable=0;points=[];autosize=1;strokeColor=none;fillColor=none;spacing=0;" vertex="1" parent="1">
          <mxGeometry x="669" y="362.69" width="60" height="20" as="geometry" />
        </mxCell>
        <mxCell id="VXKeamdtSLFpJJ3pvDuh-50" value="DIOA2" style="text;html=1;align=center;verticalAlign=middle;resizable=0;points=[];autosize=1;strokeColor=none;fillColor=none;spacing=0;" vertex="1" parent="1">
          <mxGeometry x="669" y="342.69" width="60" height="20" as="geometry" />
        </mxCell>
        <mxCell id="VXKeamdtSLFpJJ3pvDuh-51" value="DIOA1" style="text;html=1;align=center;verticalAlign=middle;resizable=0;points=[];autosize=1;strokeColor=none;fillColor=none;spacing=0;" vertex="1" parent="1">
          <mxGeometry x="669" y="322.69" width="60" height="20" as="geometry" />
        </mxCell>
        <mxCell id="VXKeamdtSLFpJJ3pvDuh-52" value="AA0" style="text;html=1;align=center;verticalAlign=middle;resizable=0;points=[];autosize=1;strokeColor=none;fillColor=none;spacing=0;" vertex="1" parent="1">
          <mxGeometry x="570" y="257.69" width="40" height="20" as="geometry" />
        </mxCell>
        <mxCell id="VXKeamdtSLFpJJ3pvDuh-53" value="AA1" style="text;html=1;align=center;verticalAlign=middle;resizable=0;points=[];autosize=1;strokeColor=none;fillColor=none;spacing=0;" vertex="1" parent="1">
          <mxGeometry x="570" y="277.69" width="40" height="20" as="geometry" />
        </mxCell>
        <mxCell id="VXKeamdtSLFpJJ3pvDuh-54" value="AA2" style="text;html=1;align=center;verticalAlign=middle;resizable=0;points=[];autosize=1;strokeColor=none;fillColor=none;spacing=0;" vertex="1" parent="1">
          <mxGeometry x="570" y="297.69" width="40" height="20" as="geometry" />
        </mxCell>
        <mxCell id="VXKeamdtSLFpJJ3pvDuh-55" value="AA3" style="text;html=1;align=center;verticalAlign=middle;resizable=0;points=[];autosize=1;strokeColor=none;fillColor=none;spacing=0;" vertex="1" parent="1">
          <mxGeometry x="570" y="317.69" width="40" height="20" as="geometry" />
        </mxCell>
        <mxCell id="VXKeamdtSLFpJJ3pvDuh-56" value="EA" style="text;html=1;align=center;verticalAlign=middle;resizable=0;points=[];autosize=1;strokeColor=none;fillColor=none;spacing=0;" vertex="1" parent="1">
          <mxGeometry x="570" y="338.69" width="40" height="20" as="geometry" />
        </mxCell>
        <mxCell id="VXKeamdtSLFpJJ3pvDuh-57" value="RDA" style="text;html=1;align=center;verticalAlign=middle;resizable=0;points=[];autosize=1;strokeColor=none;fillColor=none;spacing=0;" vertex="1" parent="1">
          <mxGeometry x="570" y="358.69" width="40" height="20" as="geometry" />
        </mxCell>
        <mxCell id="VXKeamdtSLFpJJ3pvDuh-58" value="WRA" style="text;html=1;align=center;verticalAlign=middle;resizable=0;points=[];autosize=1;strokeColor=none;fillColor=none;spacing=0;" vertex="1" parent="1">
          <mxGeometry x="565" y="377" width="50" height="20" as="geometry" />
        </mxCell>
        <mxCell id="VXKeamdtSLFpJJ3pvDuh-59" value="AB0" style="text;html=1;align=center;verticalAlign=middle;resizable=0;points=[];autosize=1;strokeColor=none;fillColor=none;spacing=0;" vertex="1" parent="1">
          <mxGeometry x="570" y="400" width="40" height="20" as="geometry" />
        </mxCell>
        <mxCell id="VXKeamdtSLFpJJ3pvDuh-60" value="DIOA0" style="text;html=1;align=center;verticalAlign=middle;resizable=0;points=[];autosize=1;strokeColor=none;fillColor=none;spacing=0;" vertex="1" parent="1">
          <mxGeometry x="669" y="302.69" width="60" height="20" as="geometry" />
        </mxCell>
        <mxCell id="VXKeamdtSLFpJJ3pvDuh-61" value="Z" style="text;html=1;align=center;verticalAlign=middle;resizable=0;points=[];autosize=1;strokeColor=none;fillColor=none;spacing=0;" vertex="1" parent="1">
          <mxGeometry x="684" y="406" width="30" height="20" as="geometry" />
        </mxCell>
        <mxCell id="VXKeamdtSLFpJJ3pvDuh-62" value="&amp;lt;-&amp;gt;" style="text;html=1;align=center;verticalAlign=middle;resizable=0;points=[];autosize=1;strokeColor=none;fillColor=none;spacing=0;" vertex="1" parent="1">
          <mxGeometry x="679" y="426" width="40" height="20" as="geometry" />
        </mxCell>
        <mxCell id="VXKeamdtSLFpJJ3pvDuh-63" value="DIOA3" style="text;html=1;align=center;verticalAlign=middle;resizable=0;points=[];autosize=1;strokeColor=none;fillColor=none;spacing=0;" vertex="1" parent="1">
          <mxGeometry x="669" y="517" width="60" height="20" as="geometry" />
        </mxCell>
        <mxCell id="VXKeamdtSLFpJJ3pvDuh-64" value="DIOA2" style="text;html=1;align=center;verticalAlign=middle;resizable=0;points=[];autosize=1;strokeColor=none;fillColor=none;spacing=0;" vertex="1" parent="1">
          <mxGeometry x="669" y="498" width="60" height="20" as="geometry" />
        </mxCell>
        <mxCell id="VXKeamdtSLFpJJ3pvDuh-65" value="DIOA1" style="text;html=1;align=center;verticalAlign=middle;resizable=0;points=[];autosize=1;strokeColor=none;fillColor=none;spacing=0;" vertex="1" parent="1">
          <mxGeometry x="669" y="477" width="60" height="20" as="geometry" />
        </mxCell>
        <mxCell id="VXKeamdtSLFpJJ3pvDuh-66" value="DIOA0" style="text;html=1;align=center;verticalAlign=middle;resizable=0;points=[];autosize=1;strokeColor=none;fillColor=none;spacing=0;" vertex="1" parent="1">
          <mxGeometry x="669" y="457" width="60" height="20" as="geometry" />
        </mxCell>
        <mxCell id="VXKeamdtSLFpJJ3pvDuh-67" value="" style="endArrow=none;html=1;rounded=0;exitX=0;exitY=0.507;exitDx=0;exitDy=0;exitPerimeter=0;" edge="1" parent="1">
          <mxGeometry width="50" height="50" relative="1" as="geometry">
            <mxPoint x="679" y="398" as="sourcePoint" />
            <mxPoint x="720" y="398" as="targetPoint" />
          </mxGeometry>
        </mxCell>
        <mxCell id="VXKeamdtSLFpJJ3pvDuh-121" value="" style="rounded=0;whiteSpace=wrap;html=1;fillColor=none;" vertex="1" parent="1">
          <mxGeometry x="304" y="155.19" width="110" height="170.81" as="geometry" />
        </mxCell>
        <mxCell id="VXKeamdtSLFpJJ3pvDuh-122" value="" style="endArrow=none;html=1;rounded=0;exitX=0.273;exitY=0.999;exitDx=0;exitDy=0;entryX=0.272;entryY=-0.001;entryDx=0;entryDy=0;exitPerimeter=0;entryPerimeter=0;" edge="1" parent="1" source="VXKeamdtSLFpJJ3pvDuh-121" target="VXKeamdtSLFpJJ3pvDuh-121">
          <mxGeometry width="50" height="50" relative="1" as="geometry">
            <mxPoint x="324" y="275.19" as="sourcePoint" />
            <mxPoint x="434" y="215.19" as="targetPoint" />
          </mxGeometry>
        </mxCell>
        <mxCell id="VXKeamdtSLFpJJ3pvDuh-123" value="" style="endArrow=none;html=1;rounded=0;exitX=0.727;exitY=0.999;exitDx=0;exitDy=0;entryX=0.726;entryY=0;entryDx=0;entryDy=0;exitPerimeter=0;entryPerimeter=0;" edge="1" parent="1" source="VXKeamdtSLFpJJ3pvDuh-121" target="VXKeamdtSLFpJJ3pvDuh-121">
          <mxGeometry width="50" height="50" relative="1" as="geometry">
            <mxPoint x="374" y="275.19" as="sourcePoint" />
            <mxPoint x="474" y="255.19" as="targetPoint" />
          </mxGeometry>
        </mxCell>
        <mxCell id="VXKeamdtSLFpJJ3pvDuh-124" value="CT" style="text;html=1;align=center;verticalAlign=middle;resizable=0;points=[];autosize=1;strokeColor=none;fillColor=none;" vertex="1" parent="1">
          <mxGeometry x="339" y="191.19" width="40" height="30" as="geometry" />
        </mxCell>
        <mxCell id="VXKeamdtSLFpJJ3pvDuh-125" value="" style="endArrow=none;html=1;rounded=0;exitX=0.001;exitY=0.842;exitDx=0;exitDy=0;exitPerimeter=0;" edge="1" parent="1">
          <mxGeometry width="50" height="50" relative="1" as="geometry">
            <mxPoint x="303.99999999999994" y="237.12000000000003" as="sourcePoint" />
            <mxPoint x="333.89" y="237.14000000000001" as="targetPoint" />
          </mxGeometry>
        </mxCell>
        <mxCell id="VXKeamdtSLFpJJ3pvDuh-128" value="C" style="text;html=1;align=center;verticalAlign=middle;resizable=0;points=[];autosize=1;strokeColor=none;fillColor=none;spacing=0;" vertex="1" parent="1">
          <mxGeometry x="304" y="276.19" width="30" height="20" as="geometry" />
        </mxCell>
        <mxCell id="VXKeamdtSLFpJJ3pvDuh-129" value="1" style="text;html=1;align=center;verticalAlign=middle;resizable=0;points=[];autosize=1;strokeColor=none;fillColor=none;spacing=0;" vertex="1" parent="1">
          <mxGeometry x="384" y="181.69" width="30" height="20" as="geometry" />
        </mxCell>
        <mxCell id="VXKeamdtSLFpJJ3pvDuh-130" value="2" style="text;html=1;align=center;verticalAlign=middle;resizable=0;points=[];autosize=1;strokeColor=none;fillColor=none;spacing=0;" vertex="1" parent="1">
          <mxGeometry x="384" y="201.69" width="30" height="20" as="geometry" />
        </mxCell>
        <mxCell id="VXKeamdtSLFpJJ3pvDuh-131" value="4" style="text;html=1;align=center;verticalAlign=middle;resizable=0;points=[];autosize=1;strokeColor=none;fillColor=none;spacing=0;" vertex="1" parent="1">
          <mxGeometry x="384" y="221.69" width="30" height="20" as="geometry" />
        </mxCell>
        <mxCell id="VXKeamdtSLFpJJ3pvDuh-132" value="8" style="text;html=1;align=center;verticalAlign=middle;resizable=0;points=[];autosize=1;strokeColor=none;fillColor=none;spacing=0;" vertex="1" parent="1">
          <mxGeometry x="384" y="242.69" width="30" height="20" as="geometry" />
        </mxCell>
        <mxCell id="VXKeamdtSLFpJJ3pvDuh-135" value="" style="endArrow=none;html=1;rounded=0;" edge="1" parent="1">
          <mxGeometry width="50" height="50" relative="1" as="geometry">
            <mxPoint x="299" y="281" as="sourcePoint" />
            <mxPoint x="309" y="291" as="targetPoint" />
          </mxGeometry>
        </mxCell>
        <mxCell id="VXKeamdtSLFpJJ3pvDuh-136" value="RgAA" style="text;html=1;align=center;verticalAlign=middle;resizable=0;points=[];autosize=1;strokeColor=none;fillColor=none;" vertex="1" parent="1">
          <mxGeometry x="334" y="125.19" width="50" height="30" as="geometry" />
        </mxCell>
        <mxCell id="VXKeamdtSLFpJJ3pvDuh-146" value="D1" style="text;html=1;align=center;verticalAlign=middle;resizable=0;points=[];autosize=1;strokeColor=none;fillColor=none;spacing=0;" vertex="1" parent="1">
          <mxGeometry x="304" y="177.19" width="30" height="20" as="geometry" />
        </mxCell>
        <mxCell id="VXKeamdtSLFpJJ3pvDuh-147" value="D2" style="text;html=1;align=center;verticalAlign=middle;resizable=0;points=[];autosize=1;strokeColor=none;fillColor=none;spacing=0;" vertex="1" parent="1">
          <mxGeometry x="304" y="194.69" width="30" height="20" as="geometry" />
        </mxCell>
        <mxCell id="VXKeamdtSLFpJJ3pvDuh-148" value="D3" style="text;html=1;align=center;verticalAlign=middle;resizable=0;points=[];autosize=1;strokeColor=none;fillColor=none;spacing=0;" vertex="1" parent="1">
          <mxGeometry x="304" y="214.69" width="30" height="20" as="geometry" />
        </mxCell>
        <mxCell id="VXKeamdtSLFpJJ3pvDuh-150" value="" style="endArrow=none;html=1;rounded=0;exitX=1;exitY=0.5;exitDx=0;exitDy=0;" edge="1" parent="1" source="VXKeamdtSLFpJJ3pvDuh-191">
          <mxGeometry x="-1" y="-15" width="50" height="50" relative="1" as="geometry">
            <mxPoint x="260" y="286" as="sourcePoint" />
            <mxPoint x="304" y="286" as="targetPoint" />
            <mxPoint as="offset" />
          </mxGeometry>
        </mxCell>
        <mxCell id="VXKeamdtSLFpJJ3pvDuh-151" value="" style="endArrow=none;html=1;rounded=0;entryX=0;entryY=0.054;entryDx=0;entryDy=0;entryPerimeter=0;edgeStyle=orthogonalEdgeStyle;exitX=1.013;exitY=0.498;exitDx=0;exitDy=0;exitPerimeter=0;" edge="1" parent="1" source="VXKeamdtSLFpJJ3pvDuh-129" target="VXKeamdtSLFpJJ3pvDuh-1">
          <mxGeometry x="-1" y="15" width="50" height="50" relative="1" as="geometry">
            <mxPoint x="390" y="191.48000000000002" as="sourcePoint" />
            <mxPoint x="560" y="266" as="targetPoint" />
            <mxPoint x="-10" y="3" as="offset" />
            <Array as="points">
              <mxPoint x="540" y="192" />
              <mxPoint x="540" y="271" />
            </Array>
          </mxGeometry>
        </mxCell>
        <mxCell id="VXKeamdtSLFpJJ3pvDuh-161" value="" style="endArrow=none;html=1;rounded=0;entryX=0;entryY=0.125;entryDx=0;entryDy=0;entryPerimeter=0;" edge="1" parent="1">
          <mxGeometry x="-1" y="-15" width="50" height="50" relative="1" as="geometry">
            <mxPoint x="264" y="168.01999999999998" as="sourcePoint" />
            <mxPoint x="304" y="168.01999999999998" as="targetPoint" />
            <mxPoint as="offset" />
          </mxGeometry>
        </mxCell>
        <mxCell id="VXKeamdtSLFpJJ3pvDuh-162" value="" style="endArrow=none;html=1;rounded=0;entryX=0;entryY=0.125;entryDx=0;entryDy=0;entryPerimeter=0;" edge="1" parent="1">
          <mxGeometry x="-1" y="-15" width="50" height="50" relative="1" as="geometry">
            <mxPoint x="264" y="187.01999999999998" as="sourcePoint" />
            <mxPoint x="304" y="187.01999999999998" as="targetPoint" />
            <mxPoint as="offset" />
          </mxGeometry>
        </mxCell>
        <mxCell id="VXKeamdtSLFpJJ3pvDuh-163" value="" style="endArrow=none;html=1;rounded=0;entryX=0;entryY=0.125;entryDx=0;entryDy=0;entryPerimeter=0;" edge="1" parent="1">
          <mxGeometry x="-1" y="-15" width="50" height="50" relative="1" as="geometry">
            <mxPoint x="264" y="204.51999999999998" as="sourcePoint" />
            <mxPoint x="304" y="204.51999999999998" as="targetPoint" />
            <mxPoint as="offset" />
          </mxGeometry>
        </mxCell>
        <mxCell id="VXKeamdtSLFpJJ3pvDuh-164" value="" style="endArrow=none;html=1;rounded=0;entryX=0;entryY=0.125;entryDx=0;entryDy=0;entryPerimeter=0;" edge="1" parent="1">
          <mxGeometry x="-1" y="-15" width="50" height="50" relative="1" as="geometry">
            <mxPoint x="264" y="224.51999999999998" as="sourcePoint" />
            <mxPoint x="304" y="224.51999999999998" as="targetPoint" />
            <mxPoint as="offset" />
          </mxGeometry>
        </mxCell>
        <mxCell id="VXKeamdtSLFpJJ3pvDuh-177" value="D0" style="text;html=1;align=center;verticalAlign=middle;resizable=0;points=[];autosize=1;strokeColor=none;fillColor=none;spacing=0;" vertex="1" parent="1">
          <mxGeometry x="304" y="158.19" width="30" height="20" as="geometry" />
        </mxCell>
        <mxCell id="VXKeamdtSLFpJJ3pvDuh-179" value="EWR" style="text;html=1;align=center;verticalAlign=middle;resizable=0;points=[];autosize=1;strokeColor=none;fillColor=none;spacing=0;" vertex="1" parent="1">
          <mxGeometry x="294" y="237.69" width="50" height="20" as="geometry" />
        </mxCell>
        <mxCell id="VXKeamdtSLFpJJ3pvDuh-180" value="U" style="text;html=1;align=center;verticalAlign=middle;resizable=0;points=[];autosize=1;strokeColor=none;fillColor=none;spacing=0;" vertex="1" parent="1">
          <mxGeometry x="304" y="256.19" width="30" height="20" as="geometry" />
        </mxCell>
        <mxCell id="VXKeamdtSLFpJJ3pvDuh-183" value="" style="endArrow=none;html=1;rounded=0;fontSize=11;strokeWidth=3;" edge="1" parent="1">
          <mxGeometry width="50" height="50" relative="1" as="geometry">
            <mxPoint x="264" y="236" as="sourcePoint" />
            <mxPoint x="230" y="146" as="targetPoint" />
            <Array as="points">
              <mxPoint x="264" y="146" />
            </Array>
          </mxGeometry>
        </mxCell>
        <mxCell id="VXKeamdtSLFpJJ3pvDuh-184" value="MAA" style="text;html=1;align=center;verticalAlign=middle;resizable=0;points=[];autosize=1;strokeColor=none;fillColor=none;" vertex="1" parent="1">
          <mxGeometry x="224" y="116" width="50" height="30" as="geometry" />
        </mxCell>
        <mxCell id="VXKeamdtSLFpJJ3pvDuh-185" value="&lt;font style=&quot;font-size: 10px&quot;&gt;1&lt;/font&gt;" style="rounded=0;whiteSpace=wrap;html=1;fontSize=10;" vertex="1" parent="1">
          <mxGeometry x="110" y="312.69" width="39" height="50" as="geometry" />
        </mxCell>
        <mxCell id="VXKeamdtSLFpJJ3pvDuh-193" style="edgeStyle=orthogonalEdgeStyle;rounded=0;orthogonalLoop=1;jettySize=auto;html=1;exitX=1;exitY=0.5;exitDx=0;exitDy=0;entryX=0;entryY=0.75;entryDx=0;entryDy=0;endArrow=none;endFill=0;" edge="1" parent="1" source="VXKeamdtSLFpJJ3pvDuh-186" target="VXKeamdtSLFpJJ3pvDuh-191">
          <mxGeometry relative="1" as="geometry" />
        </mxCell>
        <mxCell id="VXKeamdtSLFpJJ3pvDuh-186" value="" style="ellipse;whiteSpace=wrap;html=1;aspect=fixed;fontSize=12;fontColor=#000000;" vertex="1" parent="1">
          <mxGeometry x="146" y="334.69" width="5.5" height="5.5" as="geometry" />
        </mxCell>
        <mxCell id="VXKeamdtSLFpJJ3pvDuh-187" value="" style="endArrow=none;html=1;rounded=0;entryX=0;entryY=0.125;entryDx=0;entryDy=0;entryPerimeter=0;" edge="1" parent="1">
          <mxGeometry x="-1" y="15" width="50" height="50" relative="1" as="geometry">
            <mxPoint x="70" y="337.60999999999996" as="sourcePoint" />
            <mxPoint x="110" y="337.60999999999996" as="targetPoint" />
            <mxPoint x="-10" y="3" as="offset" />
          </mxGeometry>
        </mxCell>
        <mxCell id="VXKeamdtSLFpJJ3pvDuh-188" value="~WRA" style="text;html=1;align=center;verticalAlign=middle;resizable=0;points=[];autosize=1;strokeColor=none;fillColor=none;fontSize=11;fontFamily=Helvetica;fontColor=default;spacing=0;" vertex="1" parent="1">
          <mxGeometry x="40" y="315.69" width="50" height="20" as="geometry" />
        </mxCell>
        <mxCell id="VXKeamdtSLFpJJ3pvDuh-189" value="" style="endArrow=none;html=1;rounded=0;entryX=-0.001;entryY=0.649;entryDx=0;entryDy=0;entryPerimeter=0;" edge="1" parent="1" target="VXKeamdtSLFpJJ3pvDuh-121">
          <mxGeometry width="50" height="50" relative="1" as="geometry">
            <mxPoint x="280" y="266" as="sourcePoint" />
            <mxPoint x="300" y="266" as="targetPoint" />
          </mxGeometry>
        </mxCell>
        <mxCell id="VXKeamdtSLFpJJ3pvDuh-190" value="0" style="text;html=1;align=center;verticalAlign=middle;resizable=0;points=[];autosize=1;strokeColor=none;fillColor=none;" vertex="1" parent="1">
          <mxGeometry x="256.5" y="251.19" width="30" height="30" as="geometry" />
        </mxCell>
        <mxCell id="VXKeamdtSLFpJJ3pvDuh-191" value="&lt;font style=&quot;font-size: 10px&quot;&gt;1&lt;/font&gt;" style="rounded=0;whiteSpace=wrap;html=1;fontSize=10;" vertex="1" parent="1">
          <mxGeometry x="200" y="261.19" width="39" height="50" as="geometry" />
        </mxCell>
        <mxCell id="VXKeamdtSLFpJJ3pvDuh-194" value="" style="endArrow=none;html=1;rounded=0;entryX=0.004;entryY=0.543;entryDx=0;entryDy=0;entryPerimeter=0;" edge="1" parent="1" target="VXKeamdtSLFpJJ3pvDuh-121">
          <mxGeometry width="50" height="50" relative="1" as="geometry">
            <mxPoint x="150" y="248" as="sourcePoint" />
            <mxPoint x="280" y="246" as="targetPoint" />
          </mxGeometry>
        </mxCell>
        <mxCell id="VXKeamdtSLFpJJ3pvDuh-196" value="y1" style="text;html=1;align=center;verticalAlign=middle;resizable=0;points=[];autosize=1;strokeColor=none;fillColor=none;" vertex="1" parent="1">
          <mxGeometry x="118" y="231.19" width="40" height="30" as="geometry" />
        </mxCell>
        <mxCell id="VXKeamdtSLFpJJ3pvDuh-197" value="" style="endArrow=oval;html=1;rounded=0;exitX=0;exitY=0.25;exitDx=0;exitDy=0;edgeStyle=orthogonalEdgeStyle;endFill=1;startSize=4;endSize=4;" edge="1" parent="1" source="VXKeamdtSLFpJJ3pvDuh-191">
          <mxGeometry width="50" height="50" relative="1" as="geometry">
            <mxPoint x="150" y="306" as="sourcePoint" />
            <mxPoint x="174" y="248" as="targetPoint" />
            <Array as="points">
              <mxPoint x="174" y="274" />
              <mxPoint x="174" y="248" />
            </Array>
          </mxGeometry>
        </mxCell>
        <mxCell id="VXKeamdtSLFpJJ3pvDuh-198" value="" style="ellipse;whiteSpace=wrap;html=1;aspect=fixed;fontSize=12;fontColor=#000000;" vertex="1" parent="1">
          <mxGeometry x="567" y="345.94" width="5.5" height="5.5" as="geometry" />
        </mxCell>
        <mxCell id="VXKeamdtSLFpJJ3pvDuh-199" value="" style="ellipse;whiteSpace=wrap;html=1;aspect=fixed;fontSize=12;fontColor=#000000;" vertex="1" parent="1">
          <mxGeometry x="567" y="365.94" width="5.5" height="5.5" as="geometry" />
        </mxCell>
        <mxCell id="VXKeamdtSLFpJJ3pvDuh-200" value="" style="ellipse;whiteSpace=wrap;html=1;aspect=fixed;fontSize=12;fontColor=#000000;" vertex="1" parent="1">
          <mxGeometry x="567" y="384.25" width="5.5" height="5.5" as="geometry" />
        </mxCell>
        <mxCell id="VXKeamdtSLFpJJ3pvDuh-201" value="" style="endArrow=none;html=1;rounded=0;entryX=0;entryY=0.125;entryDx=0;entryDy=0;entryPerimeter=0;edgeStyle=orthogonalEdgeStyle;endFill=0;startArrow=oval;startFill=1;startSize=4;endSize=4;" edge="1" parent="1">
          <mxGeometry x="-1" y="15" width="50" height="50" relative="1" as="geometry">
            <mxPoint x="500" y="387" as="sourcePoint" />
            <mxPoint x="567" y="348.61999999999995" as="targetPoint" />
            <mxPoint x="-10" y="3" as="offset" />
            <Array as="points">
              <mxPoint x="500" y="349" />
            </Array>
          </mxGeometry>
        </mxCell>
        <mxCell id="VXKeamdtSLFpJJ3pvDuh-202" value="" style="endArrow=none;html=1;rounded=0;entryX=0;entryY=0.125;entryDx=0;entryDy=0;entryPerimeter=0;" edge="1" parent="1">
          <mxGeometry x="-1" y="15" width="50" height="50" relative="1" as="geometry">
            <mxPoint x="480" y="387" as="sourcePoint" />
            <mxPoint x="567" y="386.92999999999995" as="targetPoint" />
            <mxPoint x="-10" y="3" as="offset" />
          </mxGeometry>
        </mxCell>
        <mxCell id="VXKeamdtSLFpJJ3pvDuh-203" value="~WRA" style="text;html=1;align=center;verticalAlign=middle;resizable=0;points=[];autosize=1;strokeColor=none;fillColor=none;" vertex="1" parent="1">
          <mxGeometry x="426" y="371.44" width="60" height="30" as="geometry" />
        </mxCell>
        <mxCell id="VXKeamdtSLFpJJ3pvDuh-205" value="" style="endArrow=none;html=1;rounded=0;entryX=0;entryY=0.125;entryDx=0;entryDy=0;entryPerimeter=0;" edge="1" parent="1">
          <mxGeometry x="-1" y="15" width="50" height="50" relative="1" as="geometry">
            <mxPoint x="530" y="368.59000000000003" as="sourcePoint" />
            <mxPoint x="567" y="368.5899999999999" as="targetPoint" />
            <mxPoint x="-10" y="3" as="offset" />
          </mxGeometry>
        </mxCell>
        <mxCell id="VXKeamdtSLFpJJ3pvDuh-206" value="1" style="text;html=1;align=center;verticalAlign=middle;resizable=0;points=[];autosize=1;strokeColor=none;fillColor=none;" vertex="1" parent="1">
          <mxGeometry x="500" y="354.25" width="30" height="30" as="geometry" />
        </mxCell>
        <mxCell id="VXKeamdtSLFpJJ3pvDuh-207" value="" style="endArrow=none;html=1;rounded=0;entryX=0;entryY=0.125;entryDx=0;entryDy=0;entryPerimeter=0;" edge="1" parent="1">
          <mxGeometry x="-1" y="15" width="50" height="50" relative="1" as="geometry">
            <mxPoint x="530" y="527.94" as="sourcePoint" />
            <mxPoint x="567" y="527.9399999999998" as="targetPoint" />
            <mxPoint x="-10" y="3" as="offset" />
          </mxGeometry>
        </mxCell>
        <mxCell id="VXKeamdtSLFpJJ3pvDuh-208" value="" style="ellipse;whiteSpace=wrap;html=1;aspect=fixed;fontSize=12;fontColor=#000000;" vertex="1" parent="1">
          <mxGeometry x="567" y="525.25" width="5.5" height="5.5" as="geometry" />
        </mxCell>
        <mxCell id="VXKeamdtSLFpJJ3pvDuh-209" value="" style="ellipse;whiteSpace=wrap;html=1;aspect=fixed;fontSize=12;fontColor=#000000;" vertex="1" parent="1">
          <mxGeometry x="567" y="504.25" width="5.5" height="5.5" as="geometry" />
        </mxCell>
        <mxCell id="VXKeamdtSLFpJJ3pvDuh-210" value="" style="ellipse;whiteSpace=wrap;html=1;aspect=fixed;fontSize=12;fontColor=#000000;" vertex="1" parent="1">
          <mxGeometry x="567" y="484.25" width="5.5" height="5.5" as="geometry" />
        </mxCell>
        <mxCell id="VXKeamdtSLFpJJ3pvDuh-211" value="" style="endArrow=none;html=1;rounded=0;entryX=0;entryY=0.125;entryDx=0;entryDy=0;entryPerimeter=0;" edge="1" parent="1">
          <mxGeometry x="-1" y="15" width="50" height="50" relative="1" as="geometry">
            <mxPoint x="480" y="507" as="sourcePoint" />
            <mxPoint x="567" y="506.9399999999999" as="targetPoint" />
            <mxPoint x="-10" y="3" as="offset" />
          </mxGeometry>
        </mxCell>
        <mxCell id="VXKeamdtSLFpJJ3pvDuh-212" value="" style="endArrow=none;html=1;rounded=0;entryX=0;entryY=0.5;entryDx=0;entryDy=0;edgeStyle=orthogonalEdgeStyle;endFill=0;startArrow=oval;startFill=1;endSize=4;startSize=4;" edge="1" parent="1" target="VXKeamdtSLFpJJ3pvDuh-210">
          <mxGeometry x="-1" y="15" width="50" height="50" relative="1" as="geometry">
            <mxPoint x="500" y="507" as="sourcePoint" />
            <mxPoint x="567" y="486.9399999999999" as="targetPoint" />
            <mxPoint x="-10" y="3" as="offset" />
            <Array as="points">
              <mxPoint x="500" y="487" />
            </Array>
          </mxGeometry>
        </mxCell>
        <mxCell id="VXKeamdtSLFpJJ3pvDuh-214" value="1" style="text;html=1;align=center;verticalAlign=middle;resizable=0;points=[];autosize=1;strokeColor=none;fillColor=none;" vertex="1" parent="1">
          <mxGeometry x="500" y="512" width="30" height="30" as="geometry" />
        </mxCell>
        <mxCell id="VXKeamdtSLFpJJ3pvDuh-215" value="~RDB" style="text;html=1;align=center;verticalAlign=middle;resizable=0;points=[];autosize=1;strokeColor=none;fillColor=none;" vertex="1" parent="1">
          <mxGeometry x="434" y="491" width="50" height="26" as="geometry" />
        </mxCell>
        <mxCell id="VXKeamdtSLFpJJ3pvDuh-216" value="" style="rounded=0;whiteSpace=wrap;html=1;fillColor=none;" vertex="1" parent="1">
          <mxGeometry x="304" y="376.88" width="110" height="170.81" as="geometry" />
        </mxCell>
        <mxCell id="VXKeamdtSLFpJJ3pvDuh-217" value="" style="endArrow=none;html=1;rounded=0;exitX=0.273;exitY=0.999;exitDx=0;exitDy=0;entryX=0.272;entryY=-0.001;entryDx=0;entryDy=0;exitPerimeter=0;entryPerimeter=0;" edge="1" parent="1" source="VXKeamdtSLFpJJ3pvDuh-216" target="VXKeamdtSLFpJJ3pvDuh-216">
          <mxGeometry width="50" height="50" relative="1" as="geometry">
            <mxPoint x="324" y="496.88" as="sourcePoint" />
            <mxPoint x="434" y="436.88" as="targetPoint" />
          </mxGeometry>
        </mxCell>
        <mxCell id="VXKeamdtSLFpJJ3pvDuh-218" value="" style="endArrow=none;html=1;rounded=0;exitX=0.727;exitY=0.999;exitDx=0;exitDy=0;entryX=0.726;entryY=0;entryDx=0;entryDy=0;exitPerimeter=0;entryPerimeter=0;" edge="1" parent="1" source="VXKeamdtSLFpJJ3pvDuh-216" target="VXKeamdtSLFpJJ3pvDuh-216">
          <mxGeometry width="50" height="50" relative="1" as="geometry">
            <mxPoint x="374" y="496.88" as="sourcePoint" />
            <mxPoint x="474" y="476.88" as="targetPoint" />
          </mxGeometry>
        </mxCell>
        <mxCell id="VXKeamdtSLFpJJ3pvDuh-219" value="CT" style="text;html=1;align=center;verticalAlign=middle;resizable=0;points=[];autosize=1;strokeColor=none;fillColor=none;" vertex="1" parent="1">
          <mxGeometry x="339" y="412.88" width="40" height="30" as="geometry" />
        </mxCell>
        <mxCell id="VXKeamdtSLFpJJ3pvDuh-220" value="" style="endArrow=none;html=1;rounded=0;exitX=0.001;exitY=0.842;exitDx=0;exitDy=0;exitPerimeter=0;" edge="1" parent="1">
          <mxGeometry width="50" height="50" relative="1" as="geometry">
            <mxPoint x="303.99999999999994" y="458.81" as="sourcePoint" />
            <mxPoint x="333.89" y="458.83" as="targetPoint" />
          </mxGeometry>
        </mxCell>
        <mxCell id="VXKeamdtSLFpJJ3pvDuh-221" value="C" style="text;html=1;align=center;verticalAlign=middle;resizable=0;points=[];autosize=1;strokeColor=none;fillColor=none;spacing=0;" vertex="1" parent="1">
          <mxGeometry x="304" y="497.88" width="30" height="20" as="geometry" />
        </mxCell>
        <mxCell id="VXKeamdtSLFpJJ3pvDuh-222" value="1" style="text;html=1;align=center;verticalAlign=middle;resizable=0;points=[];autosize=1;strokeColor=none;fillColor=none;spacing=0;" vertex="1" parent="1">
          <mxGeometry x="384" y="397.38" width="30" height="20" as="geometry" />
        </mxCell>
        <mxCell id="VXKeamdtSLFpJJ3pvDuh-223" value="2" style="text;html=1;align=center;verticalAlign=middle;resizable=0;points=[];autosize=1;strokeColor=none;fillColor=none;spacing=0;" vertex="1" parent="1">
          <mxGeometry x="384" y="417.38" width="30" height="20" as="geometry" />
        </mxCell>
        <mxCell id="VXKeamdtSLFpJJ3pvDuh-224" value="4" style="text;html=1;align=center;verticalAlign=middle;resizable=0;points=[];autosize=1;strokeColor=none;fillColor=none;spacing=0;" vertex="1" parent="1">
          <mxGeometry x="384" y="437.38" width="30" height="20" as="geometry" />
        </mxCell>
        <mxCell id="VXKeamdtSLFpJJ3pvDuh-225" value="8" style="text;html=1;align=center;verticalAlign=middle;resizable=0;points=[];autosize=1;strokeColor=none;fillColor=none;spacing=0;" vertex="1" parent="1">
          <mxGeometry x="384" y="458.38" width="30" height="20" as="geometry" />
        </mxCell>
        <mxCell id="VXKeamdtSLFpJJ3pvDuh-226" value="" style="endArrow=none;html=1;rounded=0;" edge="1" parent="1">
          <mxGeometry width="50" height="50" relative="1" as="geometry">
            <mxPoint x="299" y="502.69" as="sourcePoint" />
            <mxPoint x="309" y="512.69" as="targetPoint" />
          </mxGeometry>
        </mxCell>
        <mxCell id="VXKeamdtSLFpJJ3pvDuh-227" value="RgAB" style="text;html=1;align=center;verticalAlign=middle;resizable=0;points=[];autosize=1;strokeColor=none;fillColor=none;" vertex="1" parent="1">
          <mxGeometry x="334" y="346.88" width="50" height="30" as="geometry" />
        </mxCell>
        <mxCell id="VXKeamdtSLFpJJ3pvDuh-228" value="D1" style="text;html=1;align=center;verticalAlign=middle;resizable=0;points=[];autosize=1;strokeColor=none;fillColor=none;spacing=0;" vertex="1" parent="1">
          <mxGeometry x="304" y="398.88" width="30" height="20" as="geometry" />
        </mxCell>
        <mxCell id="VXKeamdtSLFpJJ3pvDuh-229" value="D2" style="text;html=1;align=center;verticalAlign=middle;resizable=0;points=[];autosize=1;strokeColor=none;fillColor=none;spacing=0;" vertex="1" parent="1">
          <mxGeometry x="304" y="416.38" width="30" height="20" as="geometry" />
        </mxCell>
        <mxCell id="VXKeamdtSLFpJJ3pvDuh-230" value="D3" style="text;html=1;align=center;verticalAlign=middle;resizable=0;points=[];autosize=1;strokeColor=none;fillColor=none;spacing=0;" vertex="1" parent="1">
          <mxGeometry x="304" y="436.38" width="30" height="20" as="geometry" />
        </mxCell>
        <mxCell id="VXKeamdtSLFpJJ3pvDuh-231" value="" style="endArrow=none;html=1;rounded=0;exitX=1;exitY=0.5;exitDx=0;exitDy=0;" edge="1" parent="1" source="VXKeamdtSLFpJJ3pvDuh-248">
          <mxGeometry x="-1" y="-15" width="50" height="50" relative="1" as="geometry">
            <mxPoint x="260" y="507.69" as="sourcePoint" />
            <mxPoint x="304" y="507.69" as="targetPoint" />
            <mxPoint as="offset" />
          </mxGeometry>
        </mxCell>
        <mxCell id="VXKeamdtSLFpJJ3pvDuh-232" value="" style="endArrow=none;html=1;rounded=0;entryX=0;entryY=0.125;entryDx=0;entryDy=0;entryPerimeter=0;" edge="1" parent="1">
          <mxGeometry x="-1" y="-15" width="50" height="50" relative="1" as="geometry">
            <mxPoint x="264" y="389.71" as="sourcePoint" />
            <mxPoint x="304" y="389.71" as="targetPoint" />
            <mxPoint as="offset" />
          </mxGeometry>
        </mxCell>
        <mxCell id="VXKeamdtSLFpJJ3pvDuh-233" value="" style="endArrow=none;html=1;rounded=0;entryX=0;entryY=0.125;entryDx=0;entryDy=0;entryPerimeter=0;" edge="1" parent="1">
          <mxGeometry x="-1" y="-15" width="50" height="50" relative="1" as="geometry">
            <mxPoint x="264" y="408.71" as="sourcePoint" />
            <mxPoint x="304" y="408.71" as="targetPoint" />
            <mxPoint as="offset" />
          </mxGeometry>
        </mxCell>
        <mxCell id="VXKeamdtSLFpJJ3pvDuh-234" value="" style="endArrow=none;html=1;rounded=0;entryX=0;entryY=0.125;entryDx=0;entryDy=0;entryPerimeter=0;" edge="1" parent="1">
          <mxGeometry x="-1" y="-15" width="50" height="50" relative="1" as="geometry">
            <mxPoint x="264" y="426.21" as="sourcePoint" />
            <mxPoint x="304" y="426.21" as="targetPoint" />
            <mxPoint as="offset" />
          </mxGeometry>
        </mxCell>
        <mxCell id="VXKeamdtSLFpJJ3pvDuh-235" value="" style="endArrow=none;html=1;rounded=0;entryX=0;entryY=0.125;entryDx=0;entryDy=0;entryPerimeter=0;" edge="1" parent="1">
          <mxGeometry x="-1" y="-15" width="50" height="50" relative="1" as="geometry">
            <mxPoint x="264" y="446.21" as="sourcePoint" />
            <mxPoint x="304" y="446.21" as="targetPoint" />
            <mxPoint as="offset" />
          </mxGeometry>
        </mxCell>
        <mxCell id="VXKeamdtSLFpJJ3pvDuh-236" value="D0" style="text;html=1;align=center;verticalAlign=middle;resizable=0;points=[];autosize=1;strokeColor=none;fillColor=none;spacing=0;" vertex="1" parent="1">
          <mxGeometry x="304" y="379.88" width="30" height="20" as="geometry" />
        </mxCell>
        <mxCell id="VXKeamdtSLFpJJ3pvDuh-237" value="EWR" style="text;html=1;align=center;verticalAlign=middle;resizable=0;points=[];autosize=1;strokeColor=none;fillColor=none;spacing=0;" vertex="1" parent="1">
          <mxGeometry x="294" y="459.38" width="50" height="20" as="geometry" />
        </mxCell>
        <mxCell id="VXKeamdtSLFpJJ3pvDuh-238" value="U" style="text;html=1;align=center;verticalAlign=middle;resizable=0;points=[];autosize=1;strokeColor=none;fillColor=none;spacing=0;" vertex="1" parent="1">
          <mxGeometry x="304" y="477.88" width="30" height="20" as="geometry" />
        </mxCell>
        <mxCell id="VXKeamdtSLFpJJ3pvDuh-239" value="" style="endArrow=none;html=1;rounded=0;fontSize=11;strokeWidth=3;" edge="1" parent="1">
          <mxGeometry width="50" height="50" relative="1" as="geometry">
            <mxPoint x="264" y="457.69" as="sourcePoint" />
            <mxPoint x="230" y="367.69" as="targetPoint" />
            <Array as="points">
              <mxPoint x="264" y="367.69" />
            </Array>
          </mxGeometry>
        </mxCell>
        <mxCell id="VXKeamdtSLFpJJ3pvDuh-240" value="MAB" style="text;html=1;align=center;verticalAlign=middle;resizable=0;points=[];autosize=1;strokeColor=none;fillColor=none;" vertex="1" parent="1">
          <mxGeometry x="224" y="337.69" width="50" height="30" as="geometry" />
        </mxCell>
        <mxCell id="VXKeamdtSLFpJJ3pvDuh-241" value="&lt;font style=&quot;font-size: 10px&quot;&gt;1&lt;/font&gt;" style="rounded=0;whiteSpace=wrap;html=1;fontSize=10;" vertex="1" parent="1">
          <mxGeometry x="110" y="534.38" width="39" height="50" as="geometry" />
        </mxCell>
        <mxCell id="VXKeamdtSLFpJJ3pvDuh-242" style="edgeStyle=orthogonalEdgeStyle;rounded=0;orthogonalLoop=1;jettySize=auto;html=1;exitX=1;exitY=0.5;exitDx=0;exitDy=0;entryX=0;entryY=0.75;entryDx=0;entryDy=0;endArrow=none;endFill=0;" edge="1" parent="1" source="VXKeamdtSLFpJJ3pvDuh-243" target="VXKeamdtSLFpJJ3pvDuh-248">
          <mxGeometry relative="1" as="geometry" />
        </mxCell>
        <mxCell id="VXKeamdtSLFpJJ3pvDuh-243" value="" style="ellipse;whiteSpace=wrap;html=1;aspect=fixed;fontSize=12;fontColor=#000000;" vertex="1" parent="1">
          <mxGeometry x="146" y="556.3800000000001" width="5.5" height="5.5" as="geometry" />
        </mxCell>
        <mxCell id="VXKeamdtSLFpJJ3pvDuh-244" value="" style="endArrow=none;html=1;rounded=0;entryX=0;entryY=0.125;entryDx=0;entryDy=0;entryPerimeter=0;" edge="1" parent="1">
          <mxGeometry x="-1" y="15" width="50" height="50" relative="1" as="geometry">
            <mxPoint x="70" y="559.3" as="sourcePoint" />
            <mxPoint x="110" y="559.3" as="targetPoint" />
            <mxPoint x="-10" y="3" as="offset" />
          </mxGeometry>
        </mxCell>
        <mxCell id="VXKeamdtSLFpJJ3pvDuh-245" value="~RDB" style="text;html=1;align=center;verticalAlign=middle;resizable=0;points=[];autosize=1;strokeColor=none;fillColor=none;fontSize=11;fontFamily=Helvetica;fontColor=default;spacing=0;" vertex="1" parent="1">
          <mxGeometry x="40" y="537.38" width="50" height="20" as="geometry" />
        </mxCell>
        <mxCell id="VXKeamdtSLFpJJ3pvDuh-246" value="" style="endArrow=none;html=1;rounded=0;entryX=-0.001;entryY=0.649;entryDx=0;entryDy=0;entryPerimeter=0;" edge="1" parent="1" target="VXKeamdtSLFpJJ3pvDuh-216">
          <mxGeometry width="50" height="50" relative="1" as="geometry">
            <mxPoint x="280" y="487.69" as="sourcePoint" />
            <mxPoint x="300" y="487.69" as="targetPoint" />
          </mxGeometry>
        </mxCell>
        <mxCell id="VXKeamdtSLFpJJ3pvDuh-247" value="0" style="text;html=1;align=center;verticalAlign=middle;resizable=0;points=[];autosize=1;strokeColor=none;fillColor=none;" vertex="1" parent="1">
          <mxGeometry x="256.5" y="472.88" width="30" height="30" as="geometry" />
        </mxCell>
        <mxCell id="VXKeamdtSLFpJJ3pvDuh-248" value="&lt;font style=&quot;font-size: 10px&quot;&gt;1&lt;/font&gt;" style="rounded=0;whiteSpace=wrap;html=1;fontSize=10;" vertex="1" parent="1">
          <mxGeometry x="200" y="482.88" width="39" height="50" as="geometry" />
        </mxCell>
        <mxCell id="VXKeamdtSLFpJJ3pvDuh-249" value="" style="endArrow=none;html=1;rounded=0;entryX=0.004;entryY=0.543;entryDx=0;entryDy=0;entryPerimeter=0;" edge="1" parent="1" target="VXKeamdtSLFpJJ3pvDuh-216">
          <mxGeometry width="50" height="50" relative="1" as="geometry">
            <mxPoint x="150" y="469.69" as="sourcePoint" />
            <mxPoint x="280" y="467.69" as="targetPoint" />
          </mxGeometry>
        </mxCell>
        <mxCell id="VXKeamdtSLFpJJ3pvDuh-250" value="y1" style="text;html=1;align=center;verticalAlign=middle;resizable=0;points=[];autosize=1;strokeColor=none;fillColor=none;" vertex="1" parent="1">
          <mxGeometry x="118" y="452.88" width="40" height="30" as="geometry" />
        </mxCell>
        <mxCell id="VXKeamdtSLFpJJ3pvDuh-251" value="" style="endArrow=oval;html=1;rounded=0;exitX=0;exitY=0.25;exitDx=0;exitDy=0;edgeStyle=orthogonalEdgeStyle;endFill=1;startSize=4;endSize=4;" edge="1" parent="1" source="VXKeamdtSLFpJJ3pvDuh-248">
          <mxGeometry width="50" height="50" relative="1" as="geometry">
            <mxPoint x="150" y="527.69" as="sourcePoint" />
            <mxPoint x="174" y="469.69" as="targetPoint" />
            <Array as="points">
              <mxPoint x="174" y="495.69" />
              <mxPoint x="174" y="469.69" />
            </Array>
          </mxGeometry>
        </mxCell>
        <mxCell id="VXKeamdtSLFpJJ3pvDuh-252" value="" style="endArrow=none;html=1;rounded=0;entryX=0.006;entryY=0.5;entryDx=0;entryDy=0;entryPerimeter=0;exitX=1.008;exitY=0.618;exitDx=0;exitDy=0;exitPerimeter=0;edgeStyle=orthogonalEdgeStyle;" edge="1" parent="1" source="VXKeamdtSLFpJJ3pvDuh-222" target="VXKeamdtSLFpJJ3pvDuh-59">
          <mxGeometry width="50" height="50" relative="1" as="geometry">
            <mxPoint x="450" y="486" as="sourcePoint" />
            <mxPoint x="500" y="436" as="targetPoint" />
          </mxGeometry>
        </mxCell>
        <mxCell id="VXKeamdtSLFpJJ3pvDuh-253" value="" style="endArrow=none;html=1;rounded=0;entryX=-0.008;entryY=0.525;entryDx=0;entryDy=0;entryPerimeter=0;exitX=1;exitY=0.512;exitDx=0;exitDy=0;exitPerimeter=0;edgeStyle=orthogonalEdgeStyle;" edge="1" parent="1" source="VXKeamdtSLFpJJ3pvDuh-223" target="VXKeamdtSLFpJJ3pvDuh-13">
          <mxGeometry width="50" height="50" relative="1" as="geometry">
            <mxPoint x="417.5" y="437" as="sourcePoint" />
            <mxPoint x="572.5" y="434" as="targetPoint" />
          </mxGeometry>
        </mxCell>
        <mxCell id="VXKeamdtSLFpJJ3pvDuh-254" value="" style="endArrow=none;html=1;rounded=0;entryX=0.006;entryY=0.511;entryDx=0;entryDy=0;entryPerimeter=0;exitX=1.013;exitY=0.498;exitDx=0;exitDy=0;exitPerimeter=0;edgeStyle=orthogonalEdgeStyle;" edge="1" parent="1" source="VXKeamdtSLFpJJ3pvDuh-224" target="VXKeamdtSLFpJJ3pvDuh-24">
          <mxGeometry width="50" height="50" relative="1" as="geometry">
            <mxPoint x="425" y="444" as="sourcePoint" />
            <mxPoint x="580" y="438" as="targetPoint" />
          </mxGeometry>
        </mxCell>
        <mxCell id="VXKeamdtSLFpJJ3pvDuh-255" value="" style="endArrow=none;html=1;rounded=0;entryX=0.006;entryY=0.483;entryDx=0;entryDy=0;entryPerimeter=0;exitX=1.015;exitY=0.416;exitDx=0;exitDy=0;exitPerimeter=0;edgeStyle=orthogonalEdgeStyle;" edge="1" parent="1" source="VXKeamdtSLFpJJ3pvDuh-225" target="VXKeamdtSLFpJJ3pvDuh-25">
          <mxGeometry width="50" height="50" relative="1" as="geometry">
            <mxPoint x="424" y="463" as="sourcePoint" />
            <mxPoint x="580" y="457" as="targetPoint" />
          </mxGeometry>
        </mxCell>
        <mxCell id="VXKeamdtSLFpJJ3pvDuh-256" value="" style="rounded=0;whiteSpace=wrap;html=1;fillColor=none;" vertex="1" parent="1">
          <mxGeometry x="585" y="102.34" width="135" height="87.31" as="geometry" />
        </mxCell>
        <mxCell id="VXKeamdtSLFpJJ3pvDuh-257" value="" style="endArrow=none;html=1;rounded=0;exitX=0.273;exitY=0.999;exitDx=0;exitDy=0;entryX=0.272;entryY=-0.001;entryDx=0;entryDy=0;exitPerimeter=0;entryPerimeter=0;" edge="1" parent="1" source="VXKeamdtSLFpJJ3pvDuh-256" target="VXKeamdtSLFpJJ3pvDuh-256">
          <mxGeometry width="50" height="50" relative="1" as="geometry">
            <mxPoint x="605" y="222.34" as="sourcePoint" />
            <mxPoint x="715" y="162.34" as="targetPoint" />
          </mxGeometry>
        </mxCell>
        <mxCell id="VXKeamdtSLFpJJ3pvDuh-258" value="" style="endArrow=none;html=1;rounded=0;exitX=0.727;exitY=0.999;exitDx=0;exitDy=0;entryX=0.726;entryY=0;entryDx=0;entryDy=0;exitPerimeter=0;entryPerimeter=0;" edge="1" parent="1" source="VXKeamdtSLFpJJ3pvDuh-256" target="VXKeamdtSLFpJJ3pvDuh-256">
          <mxGeometry width="50" height="50" relative="1" as="geometry">
            <mxPoint x="655" y="222.34" as="sourcePoint" />
            <mxPoint x="755" y="202.34" as="targetPoint" />
          </mxGeometry>
        </mxCell>
        <mxCell id="VXKeamdtSLFpJJ3pvDuh-259" value="RG" style="text;html=1;align=center;verticalAlign=middle;resizable=0;points=[];autosize=1;strokeColor=none;fillColor=none;" vertex="1" parent="1">
          <mxGeometry x="632.5" y="120.84" width="40" height="30" as="geometry" />
        </mxCell>
        <mxCell id="VXKeamdtSLFpJJ3pvDuh-269" value="ST" style="text;html=1;align=center;verticalAlign=middle;resizable=0;points=[];autosize=1;strokeColor=none;fillColor=none;spacing=0;" vertex="1" parent="1">
          <mxGeometry x="585" y="140.34" width="30" height="20" as="geometry" />
        </mxCell>
        <mxCell id="VXKeamdtSLFpJJ3pvDuh-278" value="" style="endArrow=none;html=1;rounded=0;" edge="1" parent="1">
          <mxGeometry width="50" height="50" relative="1" as="geometry">
            <mxPoint x="580" y="144.34" as="sourcePoint" />
            <mxPoint x="590" y="154.34" as="targetPoint" />
          </mxGeometry>
        </mxCell>
        <mxCell id="VXKeamdtSLFpJJ3pvDuh-279" value="RgDIOA" style="text;html=1;align=center;verticalAlign=middle;resizable=0;points=[];autosize=1;strokeColor=none;fillColor=none;" vertex="1" parent="1">
          <mxGeometry x="617.5" y="72.34" width="70" height="30" as="geometry" />
        </mxCell>
        <mxCell id="VXKeamdtSLFpJJ3pvDuh-280" value="EO" style="text;html=1;align=center;verticalAlign=middle;resizable=0;points=[];autosize=1;strokeColor=none;fillColor=none;spacing=0;" vertex="1" parent="1">
          <mxGeometry x="580" y="159.34" width="40" height="20" as="geometry" />
        </mxCell>
        <mxCell id="VXKeamdtSLFpJJ3pvDuh-281" value="" style="ellipse;whiteSpace=wrap;html=1;aspect=fixed;fontSize=12;fontColor=#000000;" vertex="1" parent="1">
          <mxGeometry x="582" y="166.59" width="5.5" height="5.5" as="geometry" />
        </mxCell>
        <mxCell id="VXKeamdtSLFpJJ3pvDuh-290" value="" style="endArrow=none;html=1;rounded=0;entryX=0;entryY=0.5;entryDx=0;entryDy=0;" edge="1" parent="1" target="VXKeamdtSLFpJJ3pvDuh-281">
          <mxGeometry width="50" height="50" relative="1" as="geometry">
            <mxPoint x="540" y="169.65" as="sourcePoint" />
            <mxPoint x="570" y="169.65" as="targetPoint" />
          </mxGeometry>
        </mxCell>
        <mxCell id="VXKeamdtSLFpJJ3pvDuh-291" value="~WRA" style="text;html=1;align=center;verticalAlign=middle;resizable=0;points=[];autosize=1;strokeColor=none;fillColor=none;fontSize=11;fontFamily=Helvetica;fontColor=default;spacing=0;" vertex="1" parent="1">
          <mxGeometry x="490" y="159.34" width="50" height="20" as="geometry" />
        </mxCell>
        <mxCell id="VXKeamdtSLFpJJ3pvDuh-292" value="" style="endArrow=none;html=1;rounded=0;entryX=-0.002;entryY=0.542;entryDx=0;entryDy=0;entryPerimeter=0;" edge="1" parent="1" target="VXKeamdtSLFpJJ3pvDuh-256">
          <mxGeometry width="50" height="50" relative="1" as="geometry">
            <mxPoint x="540" y="149.65" as="sourcePoint" />
            <mxPoint x="580" y="149.31" as="targetPoint" />
            <Array as="points">
              <mxPoint x="540" y="149.65" />
            </Array>
          </mxGeometry>
        </mxCell>
        <mxCell id="VXKeamdtSLFpJJ3pvDuh-294" value="y2" style="text;html=1;align=center;verticalAlign=middle;resizable=0;points=[];autosize=1;strokeColor=none;fillColor=none;" vertex="1" parent="1">
          <mxGeometry x="509" y="131.84" width="40" height="30" as="geometry" />
        </mxCell>
        <mxCell id="VXKeamdtSLFpJJ3pvDuh-295" value="" style="rounded=0;whiteSpace=wrap;html=1;fillColor=none;" vertex="1" parent="1">
          <mxGeometry x="585" y="591.88" width="135" height="87.31" as="geometry" />
        </mxCell>
        <mxCell id="VXKeamdtSLFpJJ3pvDuh-296" value="" style="endArrow=none;html=1;rounded=0;exitX=0.273;exitY=0.999;exitDx=0;exitDy=0;entryX=0.272;entryY=-0.001;entryDx=0;entryDy=0;exitPerimeter=0;entryPerimeter=0;" edge="1" parent="1" source="VXKeamdtSLFpJJ3pvDuh-295" target="VXKeamdtSLFpJJ3pvDuh-295">
          <mxGeometry width="50" height="50" relative="1" as="geometry">
            <mxPoint x="605" y="711.88" as="sourcePoint" />
            <mxPoint x="715" y="651.88" as="targetPoint" />
          </mxGeometry>
        </mxCell>
        <mxCell id="VXKeamdtSLFpJJ3pvDuh-297" value="" style="endArrow=none;html=1;rounded=0;exitX=0.727;exitY=0.999;exitDx=0;exitDy=0;entryX=0.726;entryY=0;entryDx=0;entryDy=0;exitPerimeter=0;entryPerimeter=0;" edge="1" parent="1" source="VXKeamdtSLFpJJ3pvDuh-295" target="VXKeamdtSLFpJJ3pvDuh-295">
          <mxGeometry width="50" height="50" relative="1" as="geometry">
            <mxPoint x="655" y="711.88" as="sourcePoint" />
            <mxPoint x="755" y="691.88" as="targetPoint" />
          </mxGeometry>
        </mxCell>
        <mxCell id="VXKeamdtSLFpJJ3pvDuh-298" value="RG" style="text;html=1;align=center;verticalAlign=middle;resizable=0;points=[];autosize=1;strokeColor=none;fillColor=none;" vertex="1" parent="1">
          <mxGeometry x="632.5" y="610.38" width="40" height="30" as="geometry" />
        </mxCell>
        <mxCell id="VXKeamdtSLFpJJ3pvDuh-299" value="ST" style="text;html=1;align=center;verticalAlign=middle;resizable=0;points=[];autosize=1;strokeColor=none;fillColor=none;spacing=0;" vertex="1" parent="1">
          <mxGeometry x="585" y="629.88" width="30" height="20" as="geometry" />
        </mxCell>
        <mxCell id="VXKeamdtSLFpJJ3pvDuh-300" value="" style="endArrow=none;html=1;rounded=0;" edge="1" parent="1">
          <mxGeometry width="50" height="50" relative="1" as="geometry">
            <mxPoint x="580" y="633.88" as="sourcePoint" />
            <mxPoint x="590" y="643.88" as="targetPoint" />
          </mxGeometry>
        </mxCell>
        <mxCell id="VXKeamdtSLFpJJ3pvDuh-301" value="RgDIOB" style="text;html=1;align=center;verticalAlign=middle;resizable=0;points=[];autosize=1;strokeColor=none;fillColor=none;" vertex="1" parent="1">
          <mxGeometry x="617.5" y="561.88" width="70" height="30" as="geometry" />
        </mxCell>
        <mxCell id="VXKeamdtSLFpJJ3pvDuh-302" value="EO" style="text;html=1;align=center;verticalAlign=middle;resizable=0;points=[];autosize=1;strokeColor=none;fillColor=none;spacing=0;" vertex="1" parent="1">
          <mxGeometry x="580" y="648.88" width="40" height="20" as="geometry" />
        </mxCell>
        <mxCell id="VXKeamdtSLFpJJ3pvDuh-303" value="" style="ellipse;whiteSpace=wrap;html=1;aspect=fixed;fontSize=12;fontColor=#000000;" vertex="1" parent="1">
          <mxGeometry x="582" y="656.13" width="5.5" height="5.5" as="geometry" />
        </mxCell>
        <mxCell id="VXKeamdtSLFpJJ3pvDuh-304" value="DIO0" style="text;html=1;align=center;verticalAlign=middle;resizable=0;points=[];autosize=1;strokeColor=none;fillColor=none;spacing=0;" vertex="1" parent="1">
          <mxGeometry x="675" y="598.38" width="50" height="20" as="geometry" />
        </mxCell>
        <mxCell id="VXKeamdtSLFpJJ3pvDuh-305" value="DIO1" style="text;html=1;align=center;verticalAlign=middle;resizable=0;points=[];autosize=1;strokeColor=none;fillColor=none;spacing=0;" vertex="1" parent="1">
          <mxGeometry x="675" y="618.38" width="50" height="20" as="geometry" />
        </mxCell>
        <mxCell id="VXKeamdtSLFpJJ3pvDuh-306" value="DIO2" style="text;html=1;align=center;verticalAlign=middle;resizable=0;points=[];autosize=1;strokeColor=none;fillColor=none;spacing=0;" vertex="1" parent="1">
          <mxGeometry x="675" y="637.88" width="50" height="20" as="geometry" />
        </mxCell>
        <mxCell id="VXKeamdtSLFpJJ3pvDuh-307" value="DIO3" style="text;html=1;align=center;verticalAlign=middle;resizable=0;points=[];autosize=1;strokeColor=none;fillColor=none;spacing=0;" vertex="1" parent="1">
          <mxGeometry x="675" y="659.19" width="50" height="20" as="geometry" />
        </mxCell>
        <mxCell id="VXKeamdtSLFpJJ3pvDuh-308" value="" style="endArrow=none;html=1;rounded=0;entryX=0;entryY=0.5;entryDx=0;entryDy=0;" edge="1" parent="1" target="VXKeamdtSLFpJJ3pvDuh-303">
          <mxGeometry width="50" height="50" relative="1" as="geometry">
            <mxPoint x="540" y="659.19" as="sourcePoint" />
            <mxPoint x="570" y="659.19" as="targetPoint" />
          </mxGeometry>
        </mxCell>
        <mxCell id="VXKeamdtSLFpJJ3pvDuh-310" value="" style="endArrow=none;html=1;rounded=0;entryX=-0.002;entryY=0.542;entryDx=0;entryDy=0;entryPerimeter=0;" edge="1" parent="1" target="VXKeamdtSLFpJJ3pvDuh-295">
          <mxGeometry width="50" height="50" relative="1" as="geometry">
            <mxPoint x="540" y="639.19" as="sourcePoint" />
            <mxPoint x="580" y="638.85" as="targetPoint" />
            <Array as="points">
              <mxPoint x="490" y="639" />
            </Array>
          </mxGeometry>
        </mxCell>
        <mxCell id="VXKeamdtSLFpJJ3pvDuh-312" value="&lt;font style=&quot;font-size: 10px&quot;&gt;1&lt;/font&gt;" style="rounded=0;whiteSpace=wrap;html=1;fontSize=10;" vertex="1" parent="1">
          <mxGeometry x="448.5" y="613.63" width="39" height="50" as="geometry" />
        </mxCell>
        <mxCell id="VXKeamdtSLFpJJ3pvDuh-313" value="" style="ellipse;whiteSpace=wrap;html=1;aspect=fixed;fontSize=12;fontColor=#000000;" vertex="1" parent="1">
          <mxGeometry x="484.5" y="635.6300000000001" width="5.5" height="5.5" as="geometry" />
        </mxCell>
        <mxCell id="VXKeamdtSLFpJJ3pvDuh-314" value="" style="endArrow=none;html=1;rounded=0;entryX=0;entryY=0.125;entryDx=0;entryDy=0;entryPerimeter=0;" edge="1" parent="1">
          <mxGeometry x="-1" y="15" width="50" height="50" relative="1" as="geometry">
            <mxPoint x="408.5" y="638.55" as="sourcePoint" />
            <mxPoint x="448.5" y="638.55" as="targetPoint" />
            <mxPoint x="-10" y="3" as="offset" />
          </mxGeometry>
        </mxCell>
        <mxCell id="VXKeamdtSLFpJJ3pvDuh-315" value="~RDB" style="text;html=1;align=center;verticalAlign=middle;resizable=0;points=[];autosize=1;strokeColor=none;fillColor=none;fontSize=11;fontFamily=Helvetica;fontColor=default;spacing=0;" vertex="1" parent="1">
          <mxGeometry x="378.5" y="616.63" width="50" height="20" as="geometry" />
        </mxCell>
        <mxCell id="VXKeamdtSLFpJJ3pvDuh-317" value="~y3" style="text;html=1;align=center;verticalAlign=middle;resizable=0;points=[];autosize=1;strokeColor=none;fillColor=none;" vertex="1" parent="1">
          <mxGeometry x="500" y="643.88" width="40" height="30" as="geometry" />
        </mxCell>
        <mxCell id="VXKeamdtSLFpJJ3pvDuh-318" value="" style="endArrow=none;html=1;rounded=0;fontSize=11;strokeWidth=3;" edge="1" parent="1">
          <mxGeometry width="50" height="50" relative="1" as="geometry">
            <mxPoint x="800" y="400" as="sourcePoint" />
            <mxPoint x="833" y="80.38" as="targetPoint" />
            <Array as="points">
              <mxPoint x="800" y="80" />
            </Array>
          </mxGeometry>
        </mxCell>
        <mxCell id="VXKeamdtSLFpJJ3pvDuh-319" value="MDA" style="text;html=1;align=center;verticalAlign=middle;resizable=0;points=[];autosize=1;strokeColor=none;fillColor=none;" vertex="1" parent="1">
          <mxGeometry x="790" y="50.379999999999995" width="50" height="30" as="geometry" />
        </mxCell>
        <mxCell id="VXKeamdtSLFpJJ3pvDuh-320" value="" style="endArrow=classic;html=1;rounded=0;exitX=0.999;exitY=0.203;exitDx=0;exitDy=0;exitPerimeter=0;startArrow=classic;startFill=1;endFill=1;" edge="1" parent="1" source="VXKeamdtSLFpJJ3pvDuh-256">
          <mxGeometry width="50" height="50" relative="1" as="geometry">
            <mxPoint x="740" y="120" as="sourcePoint" />
            <mxPoint x="800" y="120" as="targetPoint" />
          </mxGeometry>
        </mxCell>
        <mxCell id="VXKeamdtSLFpJJ3pvDuh-325" value="" style="endArrow=classic;html=1;rounded=0;exitX=0.999;exitY=0.203;exitDx=0;exitDy=0;exitPerimeter=0;startArrow=classic;startFill=1;endFill=1;" edge="1" parent="1">
          <mxGeometry width="50" height="50" relative="1" as="geometry">
            <mxPoint x="720" y="139" as="sourcePoint" />
            <mxPoint x="800" y="139" as="targetPoint" />
          </mxGeometry>
        </mxCell>
        <mxCell id="VXKeamdtSLFpJJ3pvDuh-326" value="" style="endArrow=classic;html=1;rounded=0;exitX=1.003;exitY=0.642;exitDx=0;exitDy=0;exitPerimeter=0;startArrow=classic;startFill=1;endFill=1;" edge="1" parent="1" source="VXKeamdtSLFpJJ3pvDuh-256">
          <mxGeometry width="50" height="50" relative="1" as="geometry">
            <mxPoint x="723" y="158.19" as="sourcePoint" />
            <mxPoint x="800" y="158.19" as="targetPoint" />
          </mxGeometry>
        </mxCell>
        <mxCell id="VXKeamdtSLFpJJ3pvDuh-327" value="" style="endArrow=classic;html=1;rounded=0;exitX=1;exitY=0.892;exitDx=0;exitDy=0;exitPerimeter=0;startArrow=classic;startFill=1;endFill=1;" edge="1" parent="1" source="VXKeamdtSLFpJJ3pvDuh-256">
          <mxGeometry width="50" height="50" relative="1" as="geometry">
            <mxPoint x="720" y="180.34" as="sourcePoint" />
            <mxPoint x="800" y="180" as="targetPoint" />
          </mxGeometry>
        </mxCell>
        <mxCell id="VXKeamdtSLFpJJ3pvDuh-328" value="" style="endArrow=classic;html=1;rounded=0;exitX=0.999;exitY=0.203;exitDx=0;exitDy=0;exitPerimeter=0;startArrow=classic;startFill=1;endFill=1;" edge="1" parent="1">
          <mxGeometry width="50" height="50" relative="1" as="geometry">
            <mxPoint x="720" y="312.69" as="sourcePoint" />
            <mxPoint x="799" y="313" as="targetPoint" />
          </mxGeometry>
        </mxCell>
        <mxCell id="VXKeamdtSLFpJJ3pvDuh-329" value="" style="endArrow=classic;html=1;rounded=0;exitX=0.999;exitY=0.203;exitDx=0;exitDy=0;exitPerimeter=0;startArrow=classic;startFill=1;endFill=1;" edge="1" parent="1">
          <mxGeometry width="50" height="50" relative="1" as="geometry">
            <mxPoint x="720" y="331.69" as="sourcePoint" />
            <mxPoint x="799" y="332" as="targetPoint" />
          </mxGeometry>
        </mxCell>
        <mxCell id="VXKeamdtSLFpJJ3pvDuh-330" value="" style="endArrow=classic;html=1;rounded=0;exitX=0.999;exitY=0.203;exitDx=0;exitDy=0;exitPerimeter=0;startArrow=classic;startFill=1;endFill=1;" edge="1" parent="1">
          <mxGeometry width="50" height="50" relative="1" as="geometry">
            <mxPoint x="720" y="350.03" as="sourcePoint" />
            <mxPoint x="799" y="350" as="targetPoint" />
          </mxGeometry>
        </mxCell>
        <mxCell id="VXKeamdtSLFpJJ3pvDuh-331" value="" style="endArrow=classic;html=1;rounded=0;exitX=0.999;exitY=0.203;exitDx=0;exitDy=0;exitPerimeter=0;startArrow=classic;startFill=1;endFill=1;" edge="1" parent="1">
          <mxGeometry width="50" height="50" relative="1" as="geometry">
            <mxPoint x="720" y="373.03" as="sourcePoint" />
            <mxPoint x="799" y="373" as="targetPoint" />
          </mxGeometry>
        </mxCell>
        <mxCell id="VXKeamdtSLFpJJ3pvDuh-332" value="" style="endArrow=none;html=1;rounded=0;fontSize=11;strokeWidth=3;" edge="1" parent="1">
          <mxGeometry width="50" height="50" relative="1" as="geometry">
            <mxPoint x="799" y="690" as="sourcePoint" />
            <mxPoint x="831.5" y="456.76" as="targetPoint" />
            <Array as="points">
              <mxPoint x="798.5" y="456.38" />
            </Array>
          </mxGeometry>
        </mxCell>
        <mxCell id="VXKeamdtSLFpJJ3pvDuh-333" value="MDB" style="text;html=1;align=center;verticalAlign=middle;resizable=0;points=[];autosize=1;strokeColor=none;fillColor=none;" vertex="1" parent="1">
          <mxGeometry x="790" y="427.38" width="50" height="30" as="geometry" />
        </mxCell>
        <mxCell id="VXKeamdtSLFpJJ3pvDuh-344" value="" style="endArrow=classic;html=1;rounded=0;startArrow=classic;startFill=1;endFill=1;" edge="1" parent="1">
          <mxGeometry width="50" height="50" relative="1" as="geometry">
            <mxPoint x="720" y="628" as="sourcePoint" />
            <mxPoint x="798" y="628" as="targetPoint" />
          </mxGeometry>
        </mxCell>
        <mxCell id="VXKeamdtSLFpJJ3pvDuh-345" value="" style="endArrow=classic;html=1;rounded=0;startArrow=classic;startFill=1;endFill=1;" edge="1" parent="1">
          <mxGeometry width="50" height="50" relative="1" as="geometry">
            <mxPoint x="720" y="608.28" as="sourcePoint" />
            <mxPoint x="798" y="608.28" as="targetPoint" />
          </mxGeometry>
        </mxCell>
        <mxCell id="VXKeamdtSLFpJJ3pvDuh-346" value="" style="endArrow=classic;html=1;rounded=0;startArrow=classic;startFill=1;endFill=1;" edge="1" parent="1">
          <mxGeometry width="50" height="50" relative="1" as="geometry">
            <mxPoint x="720" y="647.78" as="sourcePoint" />
            <mxPoint x="798" y="647.78" as="targetPoint" />
          </mxGeometry>
        </mxCell>
        <mxCell id="VXKeamdtSLFpJJ3pvDuh-347" value="" style="endArrow=classic;html=1;rounded=0;startArrow=classic;startFill=1;endFill=1;" edge="1" parent="1">
          <mxGeometry width="50" height="50" relative="1" as="geometry">
            <mxPoint x="720" y="669.0899999999999" as="sourcePoint" />
            <mxPoint x="798" y="669.0899999999999" as="targetPoint" />
          </mxGeometry>
        </mxCell>
        <mxCell id="VXKeamdtSLFpJJ3pvDuh-348" value="" style="endArrow=classic;html=1;rounded=0;startArrow=classic;startFill=1;endFill=1;" edge="1" parent="1">
          <mxGeometry width="50" height="50" relative="1" as="geometry">
            <mxPoint x="720" y="486.72" as="sourcePoint" />
            <mxPoint x="798" y="486.72" as="targetPoint" />
          </mxGeometry>
        </mxCell>
        <mxCell id="VXKeamdtSLFpJJ3pvDuh-349" value="" style="endArrow=classic;html=1;rounded=0;startArrow=classic;startFill=1;endFill=1;" edge="1" parent="1">
          <mxGeometry width="50" height="50" relative="1" as="geometry">
            <mxPoint x="720" y="467" as="sourcePoint" />
            <mxPoint x="798" y="467" as="targetPoint" />
          </mxGeometry>
        </mxCell>
        <mxCell id="VXKeamdtSLFpJJ3pvDuh-350" value="" style="endArrow=classic;html=1;rounded=0;startArrow=classic;startFill=1;endFill=1;" edge="1" parent="1">
          <mxGeometry width="50" height="50" relative="1" as="geometry">
            <mxPoint x="720" y="506.5" as="sourcePoint" />
            <mxPoint x="798" y="506.5" as="targetPoint" />
          </mxGeometry>
        </mxCell>
        <mxCell id="VXKeamdtSLFpJJ3pvDuh-351" value="" style="endArrow=classic;html=1;rounded=0;startArrow=classic;startFill=1;endFill=1;" edge="1" parent="1">
          <mxGeometry width="50" height="50" relative="1" as="geometry">
            <mxPoint x="720" y="527.81" as="sourcePoint" />
            <mxPoint x="798" y="527.81" as="targetPoint" />
          </mxGeometry>
        </mxCell>
      </root>
    </mxGraphModel>
  </diagram>
  <diagram id="oZ5x1BFfxW-zT3ZYIDGk" name="PUSH (WR A)">
    <mxGraphModel dx="683" dy="379" grid="1" gridSize="10" guides="1" tooltips="1" connect="1" arrows="1" fold="1" page="1" pageScale="1" pageWidth="1169" pageHeight="827" math="0" shadow="0">
      <root>
        <mxCell id="0" />
        <mxCell id="1" parent="0" />
        <mxCell id="hus64WPrqYiu8s0Q_JYB-1" value="" style="edgeStyle=orthogonalEdgeStyle;rounded=0;orthogonalLoop=1;jettySize=auto;html=1;" edge="1" parent="1" source="hus64WPrqYiu8s0Q_JYB-2" target="hus64WPrqYiu8s0Q_JYB-4">
          <mxGeometry relative="1" as="geometry" />
        </mxCell>
        <mxCell id="hus64WPrqYiu8s0Q_JYB-2" value="Начало&lt;br&gt;PUSH" style="rounded=1;whiteSpace=wrap;html=1;arcSize=50;fillColor=default;" vertex="1" parent="1">
          <mxGeometry x="160" y="200" width="200" height="40" as="geometry" />
        </mxCell>
        <mxCell id="hus64WPrqYiu8s0Q_JYB-3" value="" style="edgeStyle=orthogonalEdgeStyle;rounded=0;orthogonalLoop=1;jettySize=auto;html=1;" edge="1" parent="1" source="hus64WPrqYiu8s0Q_JYB-4" target="hus64WPrqYiu8s0Q_JYB-7">
          <mxGeometry relative="1" as="geometry" />
        </mxCell>
        <mxCell id="hus64WPrqYiu8s0Q_JYB-4" value="RgDIOA[3..0] := MDA[3..0]" style="rounded=0;whiteSpace=wrap;html=1;" vertex="1" parent="1">
          <mxGeometry x="160" y="280" width="200" height="40" as="geometry" />
        </mxCell>
        <mxCell id="hus64WPrqYiu8s0Q_JYB-5" value="y2" style="text;html=1;align=center;verticalAlign=middle;resizable=0;points=[];autosize=1;strokeColor=none;fillColor=none;" vertex="1" parent="1">
          <mxGeometry x="360" y="285" width="40" height="30" as="geometry" />
        </mxCell>
        <mxCell id="hus64WPrqYiu8s0Q_JYB-6" value="" style="edgeStyle=orthogonalEdgeStyle;rounded=0;orthogonalLoop=1;jettySize=auto;html=1;" edge="1" parent="1" source="hus64WPrqYiu8s0Q_JYB-7" target="hus64WPrqYiu8s0Q_JYB-10">
          <mxGeometry relative="1" as="geometry" />
        </mxCell>
        <mxCell id="hus64WPrqYiu8s0Q_JYB-7" value="RAM[RGAA][3..0] := RgDIOA[3..0]&lt;br&gt;RGAA&amp;nbsp;:= RGAA&amp;nbsp;+ 1" style="rounded=0;whiteSpace=wrap;html=1;" vertex="1" parent="1">
          <mxGeometry x="160" y="352" width="200" height="50" as="geometry" />
        </mxCell>
        <mxCell id="hus64WPrqYiu8s0Q_JYB-8" value="~WRA" style="text;html=1;align=center;verticalAlign=middle;resizable=0;points=[];autosize=1;strokeColor=none;fillColor=none;" vertex="1" parent="1">
          <mxGeometry x="350" y="362" width="60" height="30" as="geometry" />
        </mxCell>
        <mxCell id="hus64WPrqYiu8s0Q_JYB-10" value="Конец&lt;br&gt;PUSH" style="rounded=1;whiteSpace=wrap;html=1;arcSize=50;fillColor=default;" vertex="1" parent="1">
          <mxGeometry x="160" y="430" width="200" height="40" as="geometry" />
        </mxCell>
      </root>
    </mxGraphModel>
  </diagram>
  <diagram id="WwvQt5s9BPA8KVFMqLHB" name="POP (WR B)">
    <mxGraphModel dx="819" dy="455" grid="1" gridSize="10" guides="1" tooltips="1" connect="1" arrows="1" fold="1" page="1" pageScale="1" pageWidth="1169" pageHeight="827" math="0" shadow="0">
      <root>
        <mxCell id="0" />
        <mxCell id="1" parent="0" />
        <mxCell id="dJpTxEIcU2W6WLYbyuVK-1" value="" style="edgeStyle=orthogonalEdgeStyle;rounded=0;orthogonalLoop=1;jettySize=auto;html=1;" edge="1" parent="1" source="dJpTxEIcU2W6WLYbyuVK-2" target="dJpTxEIcU2W6WLYbyuVK-4">
          <mxGeometry relative="1" as="geometry" />
        </mxCell>
        <mxCell id="dJpTxEIcU2W6WLYbyuVK-2" value="Начало&lt;br&gt;POP" style="rounded=1;whiteSpace=wrap;html=1;arcSize=50;fillColor=default;" vertex="1" parent="1">
          <mxGeometry x="160" y="200" width="200" height="40" as="geometry" />
        </mxCell>
        <mxCell id="dJpTxEIcU2W6WLYbyuVK-3" value="" style="edgeStyle=orthogonalEdgeStyle;rounded=0;orthogonalLoop=1;jettySize=auto;html=1;" edge="1" parent="1" source="dJpTxEIcU2W6WLYbyuVK-4" target="dJpTxEIcU2W6WLYbyuVK-6">
          <mxGeometry relative="1" as="geometry" />
        </mxCell>
        <mxCell id="dJpTxEIcU2W6WLYbyuVK-4" value="RgDIOB[3..0] := RAM[RGAB][3..0]&lt;br&gt;RGAB := RGAB + 1" style="rounded=0;whiteSpace=wrap;html=1;" vertex="1" parent="1">
          <mxGeometry x="160" y="280" width="200" height="50" as="geometry" />
        </mxCell>
        <mxCell id="dJpTxEIcU2W6WLYbyuVK-5" value="~RDB" style="text;html=1;align=center;verticalAlign=middle;resizable=0;points=[];autosize=1;strokeColor=none;fillColor=none;" vertex="1" parent="1">
          <mxGeometry x="355" y="290" width="60" height="30" as="geometry" />
        </mxCell>
        <mxCell id="dJpTxEIcU2W6WLYbyuVK-6" value="MDB[3..0] = RgDIOB[3..0]" style="rounded=0;whiteSpace=wrap;html=1;" vertex="1" parent="1">
          <mxGeometry x="160" y="352" width="200" height="38" as="geometry" />
        </mxCell>
        <mxCell id="dJpTxEIcU2W6WLYbyuVK-8" value="Конец&lt;br&gt;POP" style="rounded=1;whiteSpace=wrap;html=1;arcSize=50;fillColor=default;" vertex="1" parent="1">
          <mxGeometry x="160" y="430" width="200" height="40" as="geometry" />
        </mxCell>
        <mxCell id="dJpTxEIcU2W6WLYbyuVK-9" value="" style="edgeStyle=orthogonalEdgeStyle;rounded=0;orthogonalLoop=1;jettySize=auto;html=1;exitX=0.5;exitY=1;exitDx=0;exitDy=0;" edge="1" parent="1" source="dJpTxEIcU2W6WLYbyuVK-6" target="dJpTxEIcU2W6WLYbyuVK-8">
          <mxGeometry relative="1" as="geometry">
            <mxPoint x="280" y="480" as="sourcePoint" />
          </mxGeometry>
        </mxCell>
        <mxCell id="dJpTxEIcU2W6WLYbyuVK-10" value="~y3" style="text;html=1;align=center;verticalAlign=middle;resizable=0;points=[];autosize=1;strokeColor=none;fillColor=none;" vertex="1" parent="1">
          <mxGeometry x="360" y="356" width="40" height="30" as="geometry" />
        </mxCell>
      </root>
    </mxGraphModel>
  </diagram>
  <diagram id="TsSCK5kn4s4Vv_yg09dS" name="WR A  RD B">
    <mxGraphModel dx="683" dy="379" grid="1" gridSize="10" guides="1" tooltips="1" connect="1" arrows="1" fold="1" page="1" pageScale="1" pageWidth="1169" pageHeight="827" math="0" shadow="0">
      <root>
        <mxCell id="0" />
        <mxCell id="1" parent="0" />
        <mxCell id="PEfnMIDDqG9xnrAdmXZM-1" value="" style="edgeStyle=orthogonalEdgeStyle;rounded=0;orthogonalLoop=1;jettySize=auto;html=1;" edge="1" parent="1" source="PEfnMIDDqG9xnrAdmXZM-2" target="PEfnMIDDqG9xnrAdmXZM-4">
          <mxGeometry relative="1" as="geometry" />
        </mxCell>
        <mxCell id="PEfnMIDDqG9xnrAdmXZM-2" value="Начало" style="rounded=1;whiteSpace=wrap;html=1;arcSize=50;fillColor=default;" vertex="1" parent="1">
          <mxGeometry x="160" y="200" width="200" height="40" as="geometry" />
        </mxCell>
        <mxCell id="PEfnMIDDqG9xnrAdmXZM-3" value="" style="edgeStyle=orthogonalEdgeStyle;rounded=0;orthogonalLoop=1;jettySize=auto;html=1;" edge="1" parent="1" source="PEfnMIDDqG9xnrAdmXZM-4" target="PEfnMIDDqG9xnrAdmXZM-7">
          <mxGeometry relative="1" as="geometry" />
        </mxCell>
        <mxCell id="PEfnMIDDqG9xnrAdmXZM-4" value="RgDIOA[3..0] := MDA[3..0]" style="rounded=0;whiteSpace=wrap;html=1;" vertex="1" parent="1">
          <mxGeometry x="160" y="280" width="200" height="40" as="geometry" />
        </mxCell>
        <mxCell id="PEfnMIDDqG9xnrAdmXZM-5" value="y2" style="text;html=1;align=center;verticalAlign=middle;resizable=0;points=[];autosize=1;strokeColor=none;fillColor=none;" vertex="1" parent="1">
          <mxGeometry x="360" y="285" width="40" height="30" as="geometry" />
        </mxCell>
        <mxCell id="PEfnMIDDqG9xnrAdmXZM-6" value="" style="edgeStyle=orthogonalEdgeStyle;rounded=0;orthogonalLoop=1;jettySize=auto;html=1;" edge="1" parent="1" source="PEfnMIDDqG9xnrAdmXZM-7" target="PEfnMIDDqG9xnrAdmXZM-9">
          <mxGeometry relative="1" as="geometry" />
        </mxCell>
        <mxCell id="PEfnMIDDqG9xnrAdmXZM-7" value="RAM[RGAA][3..0] := RgDIOA[3..0]&lt;br&gt;RgDIOB[3..0] := RAM[RGAB][3..0]&lt;br&gt;RGAA&amp;nbsp;:= RGAA&amp;nbsp;+ 1&lt;br&gt;RGAB := RGAB + 1" style="rounded=0;whiteSpace=wrap;html=1;" vertex="1" parent="1">
          <mxGeometry x="160" y="340" width="200" height="70" as="geometry" />
        </mxCell>
        <mxCell id="PEfnMIDDqG9xnrAdmXZM-8" value="~WRA" style="text;html=1;align=center;verticalAlign=middle;resizable=0;points=[];autosize=1;strokeColor=none;fillColor=none;" vertex="1" parent="1">
          <mxGeometry x="350" y="350" width="60" height="30" as="geometry" />
        </mxCell>
        <mxCell id="PEfnMIDDqG9xnrAdmXZM-9" value="Конец" style="rounded=1;whiteSpace=wrap;html=1;arcSize=50;fillColor=default;" vertex="1" parent="1">
          <mxGeometry x="160" y="430" width="200" height="40" as="geometry" />
        </mxCell>
        <mxCell id="rhVNQQo465yoEDPf2pkg-1" value="~RDB" style="text;html=1;align=center;verticalAlign=middle;resizable=0;points=[];autosize=1;strokeColor=none;fillColor=none;" vertex="1" parent="1">
          <mxGeometry x="350" y="370" width="60" height="30" as="geometry" />
        </mxCell>
      </root>
    </mxGraphModel>
  </diagram>
</mxfile>
